<svg width="24" height="24" viewBox="0 0 24 24" fill="none" xmlns="http://www.w3.org/2000/svg">
  <path
    d="M0 4.72372C0 2.11488 2.11488 0 4.72372 0H19.2763C21.8851 0 24 2.11488 24 4.72372V19.2763C24 21.8851 21.8851 24 19.2763 24H4.72372C2.11488 24 0 21.8851 0 19.2763V4.72372Z"
    fill="#13131A" />
  <path d="M6.46674 4.87891H4.32495L4.32495 10.7929H6.46674L6.46674 4.87891Z" fill="#FFA621" />
  <path d="M19.6831 13.2051H17.5413V19.1191H19.6831V13.2051Z" fill="#269574" />
  <path
    d="M7.9996 7.9576C9.0691 6.87796 10.4914 6.28303 12.0032 6.28303C13.5151 6.28303 14.9373 6.87796 16.0068 7.9576C16.7894 8.74755 17.3143 9.72686 17.5397 10.7938L19.6815 10.7938C19.4323 9.15736 18.6792 7.64671 17.4963 6.45402C16.0306 4.97163 14.0792 4.15625 12.0032 4.15625C9.92721 4.15625 7.9772 4.97163 6.51014 6.45402C5.32725 7.64671 4.57413 9.15736 4.32495 10.7938H6.46675C6.69212 9.72686 7.21707 8.74755 7.9996 7.9576Z"
    fill="#FFA621" />
  <path
    d="M16.0082 16.0413C14.9387 17.1209 13.5165 17.7158 12.0046 17.7158C10.4928 17.7158 9.0705 17.1209 8.001 16.0413C7.21847 15.2513 6.69352 14.272 6.46815 13.2051H4.32495C4.57413 14.8415 5.32725 16.3521 6.51014 17.5448C7.9772 19.0258 9.92861 19.8426 12.0046 19.8426C14.0806 19.8426 16.0306 19.0272 17.4991 17.5448C18.6806 16.3521 19.4351 14.8415 19.6843 13.2051H17.5425C17.3171 14.272 16.7922 15.2513 16.0096 16.0413H16.0082Z"
    fill="#269574" />
</svg>